<svg width="300" height="861" viewBox="0 0 300 861" fill="none" xmlns="http://www.w3.org/2000/svg">
<g filter="url(#filter0_d_4_726)">
<rect x="11.1697" y="137.457" width="277.274" height="599.227" rx="51.9067" fill="#040B1B" stroke="#B6298D" stroke-width="1.31409"/>
<g filter="url(#filter1_d_4_726)">
<path d="M114.326 213.69C114.326 201.706 124.041 191.992 136.024 191.992H162.873C174.856 191.992 184.57 201.706 184.57 213.69V240.539C184.57 252.522 174.856 262.236 162.873 262.236H136.024C124.041 262.236 114.326 252.522 114.326 240.539V213.69Z" fill="#101C36"/>
</g>
<path d="M165.145 217.923C164.649 212.936 160.337 211.278 154.9 210.819L154.877 203.901L150.665 203.915L150.687 210.651C149.581 210.655 148.449 210.68 147.325 210.706L147.304 203.925L143.095 203.939L143.115 210.855C142.204 210.877 141.308 210.897 140.435 210.9L140.435 210.879L134.626 210.895L134.642 215.393C134.642 215.393 137.752 215.324 137.7 215.381C139.406 215.376 139.965 216.365 140.128 217.219L140.154 225.101C140.272 225.101 140.425 225.105 140.599 225.129L140.156 225.13L140.189 236.172C140.116 236.709 139.803 237.566 138.611 237.572C138.665 237.62 135.55 237.581 135.55 237.581L134.729 242.614L140.211 242.596C141.231 242.594 142.234 242.608 143.218 242.612L143.243 249.61L147.45 249.598L147.429 242.674C148.583 242.694 149.7 242.7 150.792 242.695L150.812 249.587L155.023 249.573L155.002 242.588C162.081 242.159 167.032 240.359 167.624 233.71C168.104 228.355 165.579 225.974 161.556 225.02C163.993 223.767 165.513 221.572 165.144 217.923L165.145 217.923Z" fill="white"/>
<path d="M159.301 232.904C159.319 238.133 150.364 237.568 147.509 237.579L147.48 228.308C150.335 228.299 159.281 227.45 159.302 232.903L159.301 232.904Z" fill="#101C36"/>
<path d="M157.298 219.83C157.312 224.587 149.843 224.056 147.465 224.064L147.438 215.656C149.816 215.648 157.283 214.867 157.298 219.83Z" fill="#101C36"/>
<path d="M107.467 292.102V310.996H116.347C119.829 310.996 122.015 308.972 122.015 305.679C122.015 303.412 120.962 301.792 119.127 301.036C120.584 300.308 121.394 298.931 121.394 297.069C121.394 294.019 119.208 292.102 115.753 292.102H107.467ZM115.348 295.098C117.048 295.098 118.074 295.908 118.074 297.474C118.074 299.039 117.075 299.876 115.348 299.876H110.409V295.098H115.348ZM115.942 302.872C117.615 302.872 118.695 303.789 118.695 305.436C118.695 307.109 117.615 308 115.942 308H110.409V302.872H115.942ZM125.643 292.75C125.643 293.965 126.345 294.801 127.479 294.801C128.585 294.801 129.287 293.965 129.287 292.75C129.287 291.563 128.585 290.699 127.479 290.699C126.345 290.699 125.643 291.563 125.643 292.75ZM124.294 310.996H130.934V308H129.098V299.255C129.098 298.256 128.801 297.474 127.938 297.501H124.51V300.389H126.156V308H124.294V310.996ZM136.173 300.389H140.248V297.501H136.173V293.398H134.283L133.609 297.474L131.233 298.85V300.389H133.231V305.679C133.231 309.323 135.012 311.401 138.089 311.401C139.034 311.401 139.709 311.158 140.545 310.807L140.113 307.946C139.574 308.189 137.954 308.486 137.36 308.351C136.173 308.054 136.173 305.949 136.173 305.544V300.389ZM148.906 297.096C144.857 297.096 142.05 300.011 142.05 304.248C142.05 308.459 144.857 311.401 148.906 311.401C150.579 311.401 152.117 310.888 153.467 309.808L152.846 307.433C151.659 308.297 150.471 308.81 149.175 308.81C146.719 308.81 145.073 306.974 145.073 304.248C145.073 301.522 146.719 299.687 149.175 299.687C150.471 299.687 151.659 300.2 152.846 301.063L153.467 298.688C152.117 297.608 150.579 297.096 148.906 297.096ZM161.959 311.401C166.142 311.401 168.949 308.54 168.949 304.248C168.949 299.957 166.142 297.096 161.959 297.096C157.775 297.096 154.941 299.957 154.941 304.248C154.941 308.54 157.775 311.401 161.959 311.401ZM161.959 308.81C159.529 308.81 157.964 306.893 157.964 304.248C157.964 301.603 159.529 299.687 161.959 299.687C164.388 299.687 165.953 301.603 165.953 304.248C165.953 306.893 164.388 308.81 161.959 308.81ZM172.535 292.75C172.535 293.965 173.237 294.801 174.37 294.801C175.477 294.801 176.179 293.965 176.179 292.75C176.179 291.563 175.477 290.699 174.37 290.699C173.237 290.699 172.535 291.563 172.535 292.75ZM171.185 310.996H177.825V308H175.99V299.255C175.99 298.256 175.693 297.474 174.829 297.501H171.401V300.389H173.048V308H171.185V310.996ZM187.997 299.687C189.751 299.687 190.669 300.901 190.669 303.223V310.996H193.611V302.602C193.611 299.147 191.911 297.096 189.077 297.096C186.89 297.096 185.001 298.418 183.975 300.362V297.501H181.06V310.996H183.975V304.248C183.975 301.684 185.757 299.687 187.997 299.687Z" fill="white"/>
<path d="M80.0016 341.935H88.4839V345.768H91.6648V341.935H94.2476V338.944H91.6648V326.737H88.4839L80.0016 339.651V341.935ZM83.6174 338.944L88.4839 331.767V338.944H83.6174ZM96.1263 326.737V329.755H103.82L97.54 345.768H101.21L107.355 329.021V326.737H96.1263ZM109.884 344.327C109.884 345.442 110.59 346.176 111.651 346.176C112.711 346.176 113.445 345.442 113.445 344.327C113.445 343.185 112.711 342.451 111.651 342.451C110.59 342.451 109.884 343.185 109.884 344.327ZM115.681 344.599C117.748 345.686 119.705 346.176 121.934 346.176C126.393 346.176 128.84 344.218 128.84 340.766C128.84 338.21 127.453 336.334 125.224 335.845C127.209 335.219 128.378 333.588 128.378 331.332C128.378 328.205 126.04 326.329 122.043 326.329C119.868 326.329 117.884 326.873 116.307 327.906L117.15 330.815C118.59 329.864 120.004 329.429 121.635 329.429C123.946 329.429 125.061 330.38 125.061 332.038C125.061 333.615 124.028 334.594 121.962 334.594H119.515V337.585H122.342C124.354 337.585 125.523 338.563 125.523 340.249C125.523 342.098 124.191 343.076 121.554 343.076C119.759 343.076 118.319 342.669 116.497 341.69L115.681 344.599ZM131.456 344.599C133.277 345.578 135.262 346.176 137.464 346.176C141.841 346.176 144.37 343.756 144.37 339.461C144.37 335.464 142.14 332.881 138.796 332.881C137.301 332.881 136.023 333.398 135.017 334.295L135.534 329.755H143.527V326.737H133.277L132.217 336.117L134.664 337.15C135.316 336.388 136.431 335.953 137.682 335.953C139.721 335.953 140.999 337.231 140.999 339.461C140.999 341.771 139.639 343.076 137.029 343.076C135.561 343.076 134.256 342.669 132.271 341.69L131.456 344.599ZM146.642 341.935H155.124V345.768H158.305V341.935H160.888V338.944H158.305V326.737H155.124L146.642 339.651V341.935ZM150.258 338.944L155.124 331.767V338.944H150.258ZM169.733 337.231C169.733 342.75 172.615 346.176 177.291 346.176C181.967 346.176 184.876 342.75 184.876 337.231V326.737H181.695V337.15C181.695 340.929 180.091 343.076 177.291 343.076C174.518 343.076 172.914 340.901 172.914 337.15V326.737H169.733V337.231ZM187.149 344.354C189.025 345.442 191.336 346.176 193.729 346.176C198.296 346.176 200.906 344.001 200.906 340.901C200.906 334.812 190.847 335.301 190.847 331.522C190.847 330.271 191.934 329.429 194.136 329.429C195.958 329.429 197.915 329.999 199.601 330.924L200.444 327.96C198.731 327.009 196.42 326.329 194.082 326.329C190.031 326.329 187.503 328.395 187.503 331.576C187.503 337.965 197.562 337.204 197.562 340.793C197.562 342.125 196.203 343.076 193.674 343.076C191.798 343.076 189.841 342.451 188.019 341.336L187.149 344.354ZM203.536 326.737V345.768H210.524C216.015 345.768 219.522 342.043 219.522 336.252C219.522 330.434 216.015 326.737 210.524 326.737H203.536ZM206.717 342.75V329.755H210.17C213.786 329.755 216.178 332.31 216.178 336.252C216.178 340.195 213.786 342.75 210.17 342.75H206.717Z" fill="#901A6F"/>
<g clip-path="url(#clip0_4_726)">
<path d="M98.2715 401.498C103.279 391.205 111.634 373.48 127.03 374.665C148.728 376.334 140.41 404.61 155.404 404.708C166.703 404.781 162.08 386.459 177.936 386.348C190.841 386.258 196.938 402.033 201.111 408.431" stroke="#901A6F" stroke-width="1.1555" stroke-miterlimit="16"/>
<path d="M127.03 374.665C111.634 373.48 103.279 391.205 98.2715 401.498V417.675H201.111V408.431C196.938 402.033 190.841 386.258 177.936 386.348C162.08 386.459 166.703 404.781 155.404 404.708C140.41 404.61 148.728 376.334 127.03 374.665Z" fill="url(#paint0_linear_4_726)"/>
<g filter="url(#filter2_d_4_726)">
<circle cx="201.111" cy="408.431" r="2.31099" fill="url(#paint1_radial_4_726)" shape-rendering="crispEdges"/>
</g>
</g>
<rect x="86.7024" y="532.406" width="127.366" height="60.2094" rx="28.8874" fill="#901A6F"/>
<rect x="83.2288" y="722.298" width="127.366" height="6.94724" rx="3.47362" fill="#901A6F"/>
<path d="M104.316 554.879H112.889C114.763 554.879 116.038 555.816 116.715 557.689C116.811 558.146 116.859 558.502 116.859 558.756C116.859 559.636 116.551 560.459 115.936 561.227V561.278C116.715 562.141 117.104 563.094 117.104 564.138C117.104 565.707 116.311 566.917 114.726 567.769C114.196 567.994 113.566 568.107 112.839 568.107H104.316V554.879ZM106.737 557.308V560.406H112.788C113.888 560.406 114.438 559.825 114.438 558.662C114.438 558.07 114.083 557.633 113.372 557.351C113.202 557.322 113.042 557.308 112.889 557.308H106.737ZM106.737 562.344V565.687H112.932C113.806 565.687 114.373 565.283 114.633 564.477L114.684 563.994C114.684 563.233 114.311 562.699 113.566 562.395C113.346 562.361 113.169 562.344 113.033 562.344H106.737ZM118.83 554.93H121.251V561.523C121.251 563.12 121.993 564.395 123.477 565.348C124.188 565.738 124.882 565.932 125.559 565.932H125.804C127.576 565.932 128.933 564.962 129.875 563.021C130.033 562.468 130.112 561.969 130.112 561.523V554.93H132.541V561.184C132.541 564.361 131.054 566.604 128.081 567.913C127.234 568.206 126.428 568.353 125.66 568.353C123.386 568.353 121.496 567.334 119.99 565.298C119.217 564.158 118.83 562.787 118.83 561.184V554.93ZM133.192 554.871H136.095C136.293 555.063 137.311 556.451 139.15 559.035L140.361 560.634C142.984 556.978 144.389 555.057 144.575 554.871H147.487L141.571 563.063V568.099H139.15V563.106C135.5 558.101 133.514 555.356 133.192 554.871ZM152.81 554.879H161.383C163.256 554.879 164.531 555.816 165.208 557.689C165.304 558.146 165.352 558.502 165.352 558.756C165.352 559.636 165.045 560.459 164.43 561.227V561.278C165.208 562.141 165.598 563.094 165.598 564.138C165.598 565.707 164.805 566.917 163.219 567.769C162.689 567.994 162.06 568.107 161.332 568.107H152.81V554.879ZM155.23 557.308V560.406H161.281C162.382 560.406 162.932 559.825 162.932 558.662C162.932 558.07 162.576 557.633 161.865 557.351C161.696 557.322 161.535 557.308 161.383 557.308H155.23ZM155.23 562.344V565.687H161.425C162.3 565.687 162.867 565.283 163.126 564.477L163.177 563.994C163.177 563.233 162.805 562.699 162.06 562.395C161.84 562.361 161.662 562.344 161.527 562.344H155.23ZM166.004 554.879H177.928V557.3H173.181V568.107H170.752V557.3H166.004V554.879ZM184.767 554.6C187.424 554.6 189.574 555.796 191.215 558.188L191.647 559.153H188.981C187.858 557.731 186.487 557.021 184.868 557.021H184.623C182.891 557.021 181.486 557.796 180.408 559.348C180.019 560.025 179.824 560.702 179.824 561.379V561.574C179.824 563.131 180.648 564.392 182.295 565.357C183.046 565.746 183.821 565.941 184.623 565.941H184.868C186.521 565.941 187.861 565.244 188.888 563.85H191.596C191.06 565.312 190.045 566.477 188.55 567.346C187.348 568.023 186.073 568.361 184.724 568.361C182.18 568.361 180.078 567.247 178.419 565.018C177.742 563.783 177.404 562.603 177.404 561.481C177.404 559.201 178.47 557.311 180.603 555.81C181.912 555.004 183.3 554.6 184.767 554.6Z" fill="white"/>
</g>
<defs>
<filter id="filter0_d_4_726" x="-5.25638" y="0.134216" width="310.126" height="871.244" filterUnits="userSpaceOnUse" color-interpolation-filters="sRGB">
<feFlood flood-opacity="0" result="BackgroundImageFix"/>
<feColorMatrix in="SourceAlpha" type="matrix" values="0 0 0 0 0 0 0 0 0 0 0 0 0 0 0 0 0 0 127 0" result="hardAlpha"/>
<feOffset dy="5.25638"/>
<feGaussianBlur stdDeviation="2.62819"/>
<feComposite in2="hardAlpha" operator="out"/>
<feColorMatrix type="matrix" values="0 0 0 0 0 0 0 0 0 0 0 0 0 0 0 0 0 0 0.25 0"/>
<feBlend mode="normal" in2="BackgroundImageFix" result="effect1_dropShadow_4_726"/>
<feBlend mode="normal" in="SourceGraphic" in2="effect1_dropShadow_4_726" result="shape"/>
</filter>
<filter id="filter1_d_4_726" x="105.082" y="182.748" width="97.9763" height="97.9762" filterUnits="userSpaceOnUse" color-interpolation-filters="sRGB">
<feFlood flood-opacity="0" result="BackgroundImageFix"/>
<feColorMatrix in="SourceAlpha" type="matrix" values="0 0 0 0 0 0 0 0 0 0 0 0 0 0 0 0 0 0 127 0" result="hardAlpha"/>
<feOffset dx="4.62199" dy="4.62199"/>
<feGaussianBlur stdDeviation="6.93298"/>
<feComposite in2="hardAlpha" operator="out"/>
<feColorMatrix type="matrix" values="0 0 0 0 0 0 0 0 0 0 0 0 0 0 0 0 0 0 0.25 0"/>
<feBlend mode="normal" in2="BackgroundImageFix" result="effect1_dropShadow_4_726"/>
<feBlend mode="normal" in="SourceGraphic" in2="effect1_dropShadow_4_726" result="shape"/>
</filter>
<filter id="filter2_d_4_726" x="192.124" y="406.12" width="17.9745" height="17.9744" filterUnits="userSpaceOnUse" color-interpolation-filters="sRGB">
<feFlood flood-opacity="0" result="BackgroundImageFix"/>
<feColorMatrix in="SourceAlpha" type="matrix" values="0 0 0 0 0 0 0 0 0 0 0 0 0 0 0 0 0 0 127 0" result="hardAlpha"/>
<feOffset dy="6.6762"/>
<feGaussianBlur stdDeviation="3.3381"/>
<feComposite in2="hardAlpha" operator="out"/>
<feColorMatrix type="matrix" values="0 0 0 0 0 0 0 0 0 0 0 0 0 0 0 0 0 0 0.25 0"/>
<feBlend mode="normal" in2="BackgroundImageFix" result="effect1_dropShadow_4_726"/>
<feBlend mode="normal" in="SourceGraphic" in2="effect1_dropShadow_4_726" result="shape"/>
</filter>
<linearGradient id="paint0_linear_4_726" x1="149.691" y1="374.608" x2="149.691" y2="417.675" gradientUnits="userSpaceOnUse">
<stop stop-color="#901A6F"/>
<stop offset="1" stop-color="#351A35" stop-opacity="0.29"/>
</linearGradient>
<radialGradient id="paint1_radial_4_726" cx="0" cy="0" r="1" gradientUnits="userSpaceOnUse" gradientTransform="translate(201.111 408.431) rotate(90) scale(2.31099)">
<stop offset="0.838542" stop-color="white"/>
<stop offset="1" stop-color="white" stop-opacity="0"/>
</radialGradient>
<clipPath id="clip0_4_726">
<rect width="112.314" height="49.7885" fill="white" transform="translate(93.6497 367.989)"/>
</clipPath>
</defs>
</svg>
