<svg width="300" height="861" viewBox="0 0 300 861" fill="none" xmlns="http://www.w3.org/2000/svg">
<g filter="url(#filter0_d_4_745)">
<rect x="11.5565" y="136.143" width="277.274" height="601.855" rx="51.9067" fill="#040B1B" stroke="#B6298D" stroke-width="1.31409"/>
<g filter="url(#filter1_d_4_745)">
<rect x="114.878" y="191.992" width="70.2443" height="70.2443" rx="21.6977" fill="#101C36"/>
</g>
<path d="M148.577 203.571L134.562 225.94L148.577 233.156L162.591 225.94L148.577 203.571Z" fill="#CFCFD1"/>
<path d="M148.577 248.728L162.591 230.042L148.577 237.8L134.562 230.042L148.577 248.728Z" fill="#CFCFD1"/>
<path d="M125.672 292.102V310.996H134.552C138.033 310.996 140.22 308.972 140.22 305.679C140.22 303.412 139.167 301.792 137.332 301.036C138.789 300.308 139.599 298.931 139.599 297.069C139.599 294.019 137.413 292.102 133.958 292.102H125.672ZM133.553 295.098C135.253 295.098 136.279 295.908 136.279 297.474C136.279 299.039 135.28 299.876 133.553 299.876H128.614V295.098H133.553ZM134.147 302.872C135.82 302.872 136.9 303.789 136.9 305.436C136.9 307.109 135.82 308 134.147 308H128.614V302.872H134.147ZM143.174 310.996H146.331V297.501L155.211 310.996H158.369V292.102H155.211V305.598L146.331 292.102H143.174V310.996ZM162.257 292.102V310.996H171.137C174.619 310.996 176.805 308.972 176.805 305.679C176.805 303.412 175.752 301.792 173.917 301.036C175.375 300.308 176.184 298.931 176.184 297.069C176.184 294.019 173.998 292.102 170.543 292.102H162.257ZM170.138 295.098C171.839 295.098 172.864 295.908 172.864 297.474C172.864 299.039 171.866 299.876 170.138 299.876H165.199V295.098H170.138ZM170.732 302.872C172.406 302.872 173.485 303.789 173.485 305.436C173.485 307.109 172.406 308 170.732 308H165.199V302.872H170.732Z" fill="white"/>
<path d="M98.4255 344.599C100.492 345.687 102.449 346.176 104.679 346.176C109.137 346.176 111.584 344.218 111.584 340.766C111.584 338.21 110.197 336.334 107.968 335.845C109.953 335.219 111.122 333.588 111.122 331.332C111.122 328.205 108.784 326.329 104.787 326.329C102.612 326.329 100.628 326.873 99.0508 327.906L99.8936 330.815C101.335 329.864 102.748 329.429 104.379 329.429C106.69 329.429 107.805 330.38 107.805 332.039C107.805 333.615 106.772 334.594 104.706 334.594H102.259V337.585H105.086C107.098 337.585 108.267 338.563 108.267 340.249C108.267 342.098 106.935 343.077 104.298 343.077C102.504 343.077 101.063 342.669 99.2411 341.69L98.4255 344.599ZM114.2 344.599C116.021 345.578 118.006 346.176 120.208 346.176C124.585 346.176 127.114 343.756 127.114 339.461C127.114 335.464 124.884 332.881 121.54 332.881C120.045 332.881 118.767 333.398 117.761 334.295L118.278 329.755H126.271V326.737H116.021L114.961 336.117L117.408 337.15C118.061 336.389 119.175 335.954 120.426 335.954C122.465 335.954 123.743 337.231 123.743 339.461C123.743 341.772 122.383 343.077 119.773 343.077C118.305 343.077 117 342.669 115.016 341.69L114.2 344.599ZM129.413 344.599C131.235 345.578 133.219 346.176 135.421 346.176C139.798 346.176 142.327 343.756 142.327 339.461C142.327 335.464 140.098 332.881 136.754 332.881C135.258 332.881 133.98 333.398 132.975 334.295L133.491 329.755H141.484V326.737H131.235L130.174 336.117L132.621 337.15C133.274 336.389 134.388 335.954 135.639 335.954C137.678 335.954 138.956 337.231 138.956 339.461C138.956 341.772 137.596 343.077 134.986 343.077C133.518 343.077 132.213 342.669 130.229 341.69L129.413 344.599ZM151.946 337.231C151.946 342.75 154.828 346.176 159.504 346.176C164.18 346.176 167.089 342.75 167.089 337.231V326.737H163.908V337.15C163.908 340.929 162.304 343.077 159.504 343.077C156.731 343.077 155.127 340.902 155.127 337.15V326.737H151.946V337.231ZM169.362 344.354C171.238 345.442 173.549 346.176 175.942 346.176C180.509 346.176 183.119 344.001 183.119 340.902C183.119 334.812 173.06 335.301 173.06 331.522C173.06 330.271 174.147 329.429 176.349 329.429C178.171 329.429 180.128 330 181.814 330.924L182.657 327.961C180.944 327.009 178.633 326.329 176.295 326.329C172.244 326.329 169.716 328.396 169.716 331.576C169.716 337.965 179.775 337.204 179.775 340.793C179.775 342.125 178.416 343.077 175.887 343.077C174.011 343.077 172.054 342.451 170.232 341.337L169.362 344.354ZM185.75 326.737V345.768H192.737C198.228 345.768 201.736 342.043 201.736 336.253C201.736 330.435 198.228 326.737 192.737 326.737H185.75ZM188.93 342.75V329.755H192.383C195.999 329.755 198.392 332.31 198.392 336.253C198.392 340.195 195.999 342.75 192.383 342.75H188.93Z" fill="#901A6F"/>
<g clip-path="url(#clip0_4_745)">
<path d="M98.6582 401.498C103.665 391.205 112.021 373.48 127.417 374.665C149.115 376.334 140.796 404.61 155.791 404.708C167.09 404.782 162.467 386.459 178.323 386.348C191.228 386.258 197.325 402.033 201.497 408.431" stroke="#901A6F" stroke-width="1.1555" stroke-miterlimit="16"/>
<path d="M127.417 374.665C112.021 373.48 103.665 391.205 98.6582 401.498V417.675H201.497V408.431C197.325 402.033 191.228 386.258 178.323 386.348C162.467 386.459 167.09 404.782 155.791 404.708C140.796 404.61 149.115 376.334 127.417 374.665Z" fill="url(#paint0_linear_4_745)"/>
<g filter="url(#filter2_d_4_745)">
<circle cx="201.497" cy="408.431" r="2.31099" fill="url(#paint1_radial_4_745)" shape-rendering="crispEdges"/>
</g>
</g>
<rect x="87.0889" y="532.407" width="127.366" height="60.2094" rx="28.8874" fill="#901A6F"/>
<rect x="83.6152" y="722.298" width="127.366" height="6.94724" rx="3.47362" fill="#901A6F"/>
<path d="M103.214 554.843H111.788C113.661 554.843 114.936 555.779 115.613 557.653C115.709 558.11 115.757 558.465 115.757 558.719C115.757 559.599 115.449 560.423 114.834 561.19V561.241C115.613 562.104 116.002 563.058 116.002 564.101C116.002 565.67 115.21 566.88 113.624 567.732C113.094 567.958 112.465 568.071 111.737 568.071H103.214V554.843ZM105.635 557.272V560.369H111.686C112.786 560.369 113.336 559.788 113.336 558.626C113.336 558.033 112.981 557.596 112.27 557.314C112.101 557.286 111.94 557.272 111.788 557.272H105.635ZM105.635 562.307V565.65H111.83C112.704 565.65 113.271 565.247 113.531 564.44L113.582 563.958C113.582 563.196 113.209 562.663 112.465 562.358C112.245 562.324 112.067 562.307 111.931 562.307H105.635ZM117.729 554.894H120.149V561.486C120.149 563.083 120.891 564.358 122.375 565.312C123.086 565.701 123.78 565.896 124.457 565.896H124.702C126.474 565.896 127.831 564.925 128.773 562.984C128.931 562.431 129.01 561.932 129.01 561.486V554.894H131.439V561.148C131.439 564.324 129.952 566.567 126.979 567.876C126.133 568.169 125.326 568.316 124.558 568.316C122.285 568.316 120.395 567.298 118.888 565.261C118.115 564.121 117.729 562.75 117.729 561.148V554.894ZM132.091 554.834H134.993C135.191 555.026 136.209 556.414 138.049 558.998L139.259 560.598C141.882 556.942 143.287 555.021 143.473 554.834H146.385L140.469 563.027V568.062H138.049V563.069C134.398 558.064 132.412 555.32 132.091 554.834ZM151.708 554.843H160.281C162.154 554.843 163.429 555.779 164.107 557.653C164.202 558.11 164.25 558.465 164.25 558.719C164.25 559.599 163.943 560.423 163.328 561.19V561.241C164.107 562.104 164.496 563.058 164.496 564.101C164.496 565.67 163.703 566.88 162.118 567.732C161.587 567.958 160.958 568.071 160.23 568.071H151.708V554.843ZM154.129 557.272V560.369H160.18C161.28 560.369 161.83 559.788 161.83 558.626C161.83 558.033 161.475 557.596 160.764 557.314C160.594 557.286 160.434 557.272 160.281 557.272H154.129ZM154.129 562.307V565.65H160.324C161.198 565.65 161.765 565.247 162.025 564.44L162.075 563.958C162.075 563.196 161.703 562.663 160.958 562.358C160.738 562.324 160.561 562.307 160.425 562.307H154.129ZM166.561 554.817H168.744C168.806 554.851 171.018 557.193 175.379 561.842C176.863 563.427 177.639 564.234 177.707 564.262V554.817H180.127V568.045H177.944C177.882 568.011 175.67 565.67 171.309 561.021C169.825 559.435 169.049 558.629 168.981 558.6V568.045H166.561V554.817ZM183.597 554.843H192.17C194.043 554.843 195.318 555.779 195.996 557.653C196.091 558.11 196.139 558.465 196.139 558.719C196.139 559.599 195.832 560.423 195.217 561.19V561.241C195.996 562.104 196.385 563.058 196.385 564.101C196.385 565.67 195.592 566.88 194.007 567.732C193.476 567.958 192.847 568.071 192.119 568.071H183.597V554.843ZM186.018 557.272V560.369H192.069C193.169 560.369 193.719 559.788 193.719 558.626C193.719 558.033 193.364 557.596 192.653 557.314C192.483 557.286 192.323 557.272 192.17 557.272H186.018ZM186.018 562.307V565.65H192.213C193.087 565.65 193.654 565.247 193.914 564.44L193.964 563.958C193.964 563.196 193.592 562.663 192.847 562.358C192.627 562.324 192.449 562.307 192.314 562.307H186.018Z" fill="white"/>
</g>
<defs>
<filter id="filter0_d_4_745" x="-4.86966" y="0.134216" width="310.126" height="871.244" filterUnits="userSpaceOnUse" color-interpolation-filters="sRGB">
<feFlood flood-opacity="0" result="BackgroundImageFix"/>
<feColorMatrix in="SourceAlpha" type="matrix" values="0 0 0 0 0 0 0 0 0 0 0 0 0 0 0 0 0 0 127 0" result="hardAlpha"/>
<feOffset dy="5.25638"/>
<feGaussianBlur stdDeviation="2.62819"/>
<feComposite in2="hardAlpha" operator="out"/>
<feColorMatrix type="matrix" values="0 0 0 0 0 0 0 0 0 0 0 0 0 0 0 0 0 0 0.25 0"/>
<feBlend mode="normal" in2="BackgroundImageFix" result="effect1_dropShadow_4_745"/>
<feBlend mode="normal" in="SourceGraphic" in2="effect1_dropShadow_4_745" result="shape"/>
</filter>
<filter id="filter1_d_4_745" x="105.634" y="182.748" width="97.9763" height="97.9762" filterUnits="userSpaceOnUse" color-interpolation-filters="sRGB">
<feFlood flood-opacity="0" result="BackgroundImageFix"/>
<feColorMatrix in="SourceAlpha" type="matrix" values="0 0 0 0 0 0 0 0 0 0 0 0 0 0 0 0 0 0 127 0" result="hardAlpha"/>
<feOffset dx="4.62199" dy="4.62199"/>
<feGaussianBlur stdDeviation="6.93298"/>
<feComposite in2="hardAlpha" operator="out"/>
<feColorMatrix type="matrix" values="0 0 0 0 0 0 0 0 0 0 0 0 0 0 0 0 0 0 0.25 0"/>
<feBlend mode="normal" in2="BackgroundImageFix" result="effect1_dropShadow_4_745"/>
<feBlend mode="normal" in="SourceGraphic" in2="effect1_dropShadow_4_745" result="shape"/>
</filter>
<filter id="filter2_d_4_745" x="192.51" y="406.12" width="17.9745" height="17.9744" filterUnits="userSpaceOnUse" color-interpolation-filters="sRGB">
<feFlood flood-opacity="0" result="BackgroundImageFix"/>
<feColorMatrix in="SourceAlpha" type="matrix" values="0 0 0 0 0 0 0 0 0 0 0 0 0 0 0 0 0 0 127 0" result="hardAlpha"/>
<feOffset dy="6.6762"/>
<feGaussianBlur stdDeviation="3.3381"/>
<feComposite in2="hardAlpha" operator="out"/>
<feColorMatrix type="matrix" values="0 0 0 0 0 0 0 0 0 0 0 0 0 0 0 0 0 0 0.25 0"/>
<feBlend mode="normal" in2="BackgroundImageFix" result="effect1_dropShadow_4_745"/>
<feBlend mode="normal" in="SourceGraphic" in2="effect1_dropShadow_4_745" result="shape"/>
</filter>
<linearGradient id="paint0_linear_4_745" x1="150.078" y1="374.608" x2="150.078" y2="417.675" gradientUnits="userSpaceOnUse">
<stop stop-color="#901A6F"/>
<stop offset="1" stop-color="#351A35" stop-opacity="0.29"/>
</linearGradient>
<radialGradient id="paint1_radial_4_745" cx="0" cy="0" r="1" gradientUnits="userSpaceOnUse" gradientTransform="translate(201.497 408.431) rotate(90) scale(2.31099)">
<stop offset="0.838542" stop-color="white"/>
<stop offset="1" stop-color="white" stop-opacity="0"/>
</radialGradient>
<clipPath id="clip0_4_745">
<rect width="112.314" height="49.7885" fill="white" transform="translate(94.0364 367.989)"/>
</clipPath>
</defs>
</svg>
