<svg width="311" height="660" viewBox="0 0 311 660" fill="none" xmlns="http://www.w3.org/2000/svg">
<g filter="url(#filter0_d_4_728)">
<rect x="6.69318" y="1.57587" width="298.299" height="646.534" rx="51.9067" fill="#040B1B" stroke="#B6298D" stroke-width="1.31409"/>
<g filter="url(#filter1_d_4_728)">
<rect x="116.42" y="28.5148" width="79.7217" height="79.7217" rx="24.6758" fill="#101C36"/>
</g>
<path d="M156.572 41.6558L156.24 42.783V75.4941L156.572 75.8252L171.756 66.8499L156.572 41.6558Z" fill="#CFCFD1"/>
<path d="M156.572 41.6558L141.388 66.8499L156.572 75.8253V59.9483V41.6558Z" fill="#CFCFD1"/>
<path d="M156.572 80.7655L156.385 80.9934V92.6458L156.572 93.1916L171.766 71.7947L156.572 80.7655Z" fill="#CFCFD1"/>
<path d="M156.572 93.1917V80.7655L141.388 71.7947L156.572 93.1917Z" fill="#CFCFD1"/>
<path d="M156.572 75.8251L171.756 66.8499L156.572 59.9483V75.8251Z" fill="#CFCFD1"/>
<path d="M141.388 66.8499L156.572 75.8252V59.9483L141.388 66.8499Z" fill="#CFCFD1"/>
<path d="M90.6492 142.12V163.607H104.278V160.199H94.2405V154.122H103.633V150.745H94.2405V145.527H104.278V142.12H90.6492ZM111.994 151.543H116.629V148.259H111.994V143.593H109.846L109.078 148.228L106.377 149.794V151.543H108.649V157.56C108.649 161.704 110.674 164.067 114.174 164.067C115.248 164.067 116.015 163.791 116.967 163.392L116.476 160.138C115.862 160.414 114.02 160.752 113.345 160.599C111.994 160.261 111.994 157.867 111.994 157.406V151.543ZM120.119 163.607H123.465V155.933C123.465 153.017 125.46 150.745 128.008 150.745C130.003 150.745 131.047 152.127 131.047 154.766V163.607H134.393V154.06C134.393 150.131 132.459 147.798 129.236 147.798C126.75 147.798 124.601 149.303 123.465 151.513V141.045H120.119V163.607ZM137.233 155.933C137.233 160.936 140.426 164.067 145.337 164.067C147.486 164.067 149.757 163.33 151.23 162.164L150.555 159.493C149.112 160.476 147.209 161.12 145.675 161.12C143.342 161.12 141.254 159.77 140.886 157.191H151.2C151.23 156.762 151.292 156.332 151.292 155.871C151.353 151.359 148.713 147.798 144.355 147.798C140.18 147.798 137.233 151.114 137.233 155.933ZM140.733 155.043C140.886 152.311 142.359 150.745 144.385 150.745C146.626 150.745 147.7 152.648 147.793 155.043H140.733ZM163.216 148.075C162.848 147.921 162.418 147.798 161.896 147.798C160.054 147.798 158.519 149.088 157.537 151.328V148.259H154.222V163.607H157.537V157.099C157.537 153.631 159.256 151.144 161.558 150.991C162.111 150.929 162.663 150.929 163.216 151.236V148.075ZM165.261 155.933C165.261 160.936 168.453 164.067 173.365 164.067C175.513 164.067 177.785 163.33 179.258 162.164L178.583 159.493C177.14 160.476 175.237 161.12 173.702 161.12C171.369 161.12 169.282 159.77 168.914 157.191H179.227C179.258 156.762 179.32 156.332 179.32 155.871C179.381 151.359 176.741 147.798 172.382 147.798C168.208 147.798 165.261 151.114 165.261 155.933ZM168.76 155.043C168.914 152.311 170.387 150.745 172.413 150.745C174.654 150.745 175.728 152.648 175.82 155.043H168.76ZM185.503 148.259H182.188V157.805C182.188 161.734 184.122 164.067 187.284 164.067C189.678 164.067 191.735 162.594 192.87 160.414V163.607H196.186V148.259H192.87V155.933C192.87 158.849 190.967 161.12 188.512 161.12C186.547 161.12 185.503 159.739 185.503 157.099V148.259ZM200.753 148.259V163.607H204.068V155.718C204.068 153.109 205.296 150.745 207.383 150.745C209.01 150.745 210.084 152.219 210.084 154.766V163.607H213.43V155.933C213.43 153.14 214.873 150.745 216.929 150.745C218.341 150.745 219.385 151.942 219.385 154.766V163.607H222.731V154.06C222.731 150.131 220.951 147.798 218.065 147.798C215.61 147.798 214.106 149.548 213.154 151.942C212.601 149.395 210.913 147.798 208.642 147.798C206.37 147.798 204.743 149.364 204.068 151.605V148.259H200.753Z" fill="white"/>
<path d="M85.453 199.883V203.315H99.3355V199.883H89.0396C89.0705 197.781 91.3585 197.039 93.832 195.988C96.6765 194.813 99.7374 193.174 99.7374 188.413C99.7374 183.899 97.0784 181.209 92.5643 181.209C90.2454 181.209 88.0193 181.889 85.9168 183.002L86.8444 186.31C88.7613 185.321 90.771 184.733 92.3788 184.733C94.6359 184.733 95.9344 185.939 95.9344 188.042C95.9344 191.412 92.0078 191.783 89.1323 193.731C87.1845 195.029 85.453 196.637 85.453 199.883ZM102.854 201.677C102.854 202.944 103.658 203.779 104.864 203.779C106.07 203.779 106.905 202.944 106.905 201.677C106.905 200.378 106.07 199.543 104.864 199.543C103.658 199.543 102.854 200.378 102.854 201.677ZM109.633 201.986C111.705 203.099 113.962 203.779 116.466 203.779C121.444 203.779 124.32 201.027 124.32 196.142C124.32 191.597 121.784 188.66 117.981 188.66C116.281 188.66 114.828 189.247 113.684 190.268L114.271 185.104H123.361V181.672H111.705L110.499 192.339L113.282 193.514C114.024 192.648 115.291 192.154 116.714 192.154C119.033 192.154 120.486 193.607 120.486 196.142C120.486 198.77 118.94 200.254 115.972 200.254C114.302 200.254 112.818 199.791 110.561 198.678L109.633 201.986ZM126.904 198.956H136.55V203.315H140.168V198.956H143.105V195.555H140.168V181.672H136.55L126.904 196.359V198.956ZM131.016 195.555L136.55 187.392V195.555H131.016ZM144.809 198.956H154.455V203.315H158.073V198.956H161.01V195.555H158.073V181.672H154.455L144.809 196.359V198.956ZM148.921 195.555L154.455 187.392V195.555H148.921ZM171.069 193.607C171.069 199.883 174.346 203.779 179.664 203.779C184.982 203.779 188.291 199.883 188.291 193.607V181.672H184.673V193.514C184.673 197.812 182.849 200.254 179.664 200.254C176.511 200.254 174.686 197.781 174.686 193.514V181.672H171.069V193.607ZM190.876 201.708C193.009 202.944 195.637 203.779 198.358 203.779C203.553 203.779 206.521 201.306 206.521 197.781C206.521 190.855 195.081 191.412 195.081 187.114C195.081 185.692 196.318 184.733 198.822 184.733C200.894 184.733 203.12 185.383 205.037 186.434L205.995 183.064C204.047 181.982 201.419 181.209 198.76 181.209C194.153 181.209 191.278 183.558 191.278 187.176C191.278 194.442 202.718 193.576 202.718 197.657C202.718 199.172 201.172 200.254 198.296 200.254C196.163 200.254 193.937 199.543 191.865 198.276L190.876 201.708ZM209.512 181.672V203.315H217.458C223.704 203.315 227.693 199.08 227.693 192.494C227.693 185.877 223.704 181.672 217.458 181.672H209.512ZM213.13 199.883V185.104H217.057C221.169 185.104 223.89 188.011 223.89 192.494C223.89 196.977 221.169 199.883 217.057 199.883H213.13Z" fill="#901A6F"/>
<g clip-path="url(#clip0_4_728)">
<path d="M98.0227 266.385C103.717 254.68 113.219 234.522 130.729 235.869C155.405 237.767 145.944 269.924 162.997 270.036C175.847 270.12 170.59 249.282 188.622 249.156C203.298 249.054 210.232 266.994 214.977 274.27" stroke="#901A6F" stroke-width="1.31409" stroke-miterlimit="16"/>
<path d="M130.729 235.869C113.219 234.522 103.717 254.68 98.0227 266.385V284.783H214.977V274.27C210.232 266.994 203.298 249.054 188.622 249.156C170.59 249.282 175.847 270.12 162.997 270.036C145.944 269.924 155.405 237.767 130.729 235.869Z" fill="url(#paint0_linear_4_728)"/>
<g filter="url(#filter2_d_4_728)">
<circle cx="214.977" cy="274.27" r="2.62819" fill="url(#paint1_radial_4_728)" shape-rendering="crispEdges"/>
</g>
</g>
<rect x="80.9397" y="630.37" width="144.55" height="7.88456" rx="3.94228" fill="#901A6F"/>
<rect x="84.8818" y="414.858" width="144" height="67" rx="32.8523" fill="#901A6F"/>
<path d="M105.161 440.834H114.911C117.041 440.834 118.491 441.899 119.261 444.03C119.37 444.549 119.425 444.954 119.425 445.242C119.425 446.243 119.075 447.18 118.376 448.053V448.111C119.261 449.092 119.704 450.177 119.704 451.364C119.704 453.147 118.802 454.524 116.999 455.493C116.396 455.749 115.681 455.878 114.853 455.878H105.161V440.834ZM107.914 443.597V447.119H114.795C116.047 447.119 116.672 446.458 116.672 445.136C116.672 444.463 116.268 443.965 115.459 443.645C115.267 443.613 115.084 443.597 114.911 443.597H107.914ZM107.914 449.323V453.125H114.959C115.953 453.125 116.598 452.666 116.893 451.749L116.951 451.2C116.951 450.334 116.528 449.727 115.681 449.381C115.431 449.342 115.228 449.323 115.074 449.323H107.914ZM121.667 440.892H124.42V448.39C124.42 450.205 125.264 451.656 126.951 452.74C127.76 453.183 128.549 453.404 129.319 453.404H129.598C131.613 453.404 133.156 452.3 134.228 450.093C134.407 449.464 134.497 448.897 134.497 448.39V440.892H137.259V448.005C137.259 451.617 135.569 454.168 132.187 455.656C131.225 455.99 130.307 456.157 129.434 456.157C126.849 456.157 124.699 454.999 122.986 452.682C122.107 451.386 121.667 449.827 121.667 448.005V440.892ZM138 440.825H141.302C141.526 441.043 142.684 442.621 144.776 445.56L146.153 447.379C149.136 443.221 150.734 441.036 150.946 440.825H154.257L147.529 450.141V455.868H144.776V450.189C140.625 444.498 138.366 441.376 138 440.825ZM160.426 440.815H173.814V443.577H163.179V446.936H171.889V449.689H163.179V453.106H173.814V455.858H160.426V440.815ZM175.835 440.834H189.396V443.587H183.997V455.878H181.235V443.587H175.835V440.834ZM191.196 440.796H193.959V446.975H203.323V440.796H206.076V455.839H203.323V449.727H193.959V455.839H191.196V440.796Z" fill="white"/>
</g>
<defs>
<filter id="filter0_d_4_728" x="0.779757" y="0.918823" width="311.44" height="659.675" filterUnits="userSpaceOnUse" color-interpolation-filters="sRGB">
<feFlood flood-opacity="0" result="BackgroundImageFix"/>
<feColorMatrix in="SourceAlpha" type="matrix" values="0 0 0 0 0 0 0 0 0 0 0 0 0 0 0 0 0 0 127 0" result="hardAlpha"/>
<feOffset dy="5.25638"/>
<feGaussianBlur stdDeviation="2.62819"/>
<feComposite in2="hardAlpha" operator="out"/>
<feColorMatrix type="matrix" values="0 0 0 0 0 0 0 0 0 0 0 0 0 0 0 0 0 0 0.25 0"/>
<feBlend mode="normal" in2="BackgroundImageFix" result="effect1_dropShadow_4_728"/>
<feBlend mode="normal" in="SourceGraphic" in2="effect1_dropShadow_4_728" result="shape"/>
</filter>
<filter id="filter1_d_4_728" x="105.907" y="18.0021" width="111.26" height="111.26" filterUnits="userSpaceOnUse" color-interpolation-filters="sRGB">
<feFlood flood-opacity="0" result="BackgroundImageFix"/>
<feColorMatrix in="SourceAlpha" type="matrix" values="0 0 0 0 0 0 0 0 0 0 0 0 0 0 0 0 0 0 127 0" result="hardAlpha"/>
<feOffset dx="5.25638" dy="5.25638"/>
<feGaussianBlur stdDeviation="7.88456"/>
<feComposite in2="hardAlpha" operator="out"/>
<feColorMatrix type="matrix" values="0 0 0 0 0 0 0 0 0 0 0 0 0 0 0 0 0 0 0.25 0"/>
<feBlend mode="normal" in2="BackgroundImageFix" result="effect1_dropShadow_4_728"/>
<feBlend mode="normal" in="SourceGraphic" in2="effect1_dropShadow_4_728" result="shape"/>
</filter>
<filter id="filter2_d_4_728" x="204.756" y="271.642" width="20.4414" height="20.4414" filterUnits="userSpaceOnUse" color-interpolation-filters="sRGB">
<feFlood flood-opacity="0" result="BackgroundImageFix"/>
<feColorMatrix in="SourceAlpha" type="matrix" values="0 0 0 0 0 0 0 0 0 0 0 0 0 0 0 0 0 0 127 0" result="hardAlpha"/>
<feOffset dy="7.59254"/>
<feGaussianBlur stdDeviation="3.79627"/>
<feComposite in2="hardAlpha" operator="out"/>
<feColorMatrix type="matrix" values="0 0 0 0 0 0 0 0 0 0 0 0 0 0 0 0 0 0 0.25 0"/>
<feBlend mode="normal" in2="BackgroundImageFix" result="effect1_dropShadow_4_728"/>
<feBlend mode="normal" in="SourceGraphic" in2="effect1_dropShadow_4_728" result="shape"/>
</filter>
<linearGradient id="paint0_linear_4_728" x1="156.5" y1="235.805" x2="156.5" y2="284.783" gradientUnits="userSpaceOnUse">
<stop stop-color="#901A6F"/>
<stop offset="1" stop-color="#351A35" stop-opacity="0.29"/>
</linearGradient>
<radialGradient id="paint1_radial_4_728" cx="0" cy="0" r="1" gradientUnits="userSpaceOnUse" gradientTransform="translate(214.977 274.27) rotate(90) scale(2.62819)">
<stop offset="0.838542" stop-color="white"/>
<stop offset="1" stop-color="white" stop-opacity="0"/>
</radialGradient>
<clipPath id="clip0_4_728">
<rect width="127.467" height="56.506" fill="white" transform="translate(92.7664 228.276)"/>
</clipPath>
</defs>
</svg>
