<svg width="20" height="20" viewBox="0 0 20 20" fill="none" xmlns="http://www.w3.org/2000/svg">
<path d="M10 1.82692C12.6923 1.82692 12.9808 1.82692 14.0385 1.92308C15 1.92308 15.5769 2.11538 15.8654 2.30769C16.3462 2.5 16.6346 2.69231 17.0192 3.07692C17.4038 3.46154 17.5962 3.75 17.7885 4.23077C17.8846 4.61539 18.0769 5.09615 18.1731 6.05769C18.1731 7.11539 18.2692 7.40385 18.2692 10.0962C18.2692 12.7885 18.2692 13.0769 18.1731 14.1346C18.1731 15.0962 17.9808 15.6731 17.7885 15.9615C17.5962 16.4423 17.4038 16.7308 17.0192 17.1154C16.6346 17.5 16.3462 17.6923 15.8654 17.8846C15.4808 17.9808 15 18.1731 14.0385 18.2692C13.0769 18.2692 12.6923 18.2692 10 18.2692C7.30769 18.2692 7.01923 18.2692 5.96154 18.1731C5 18.1731 4.42308 17.9808 4.13462 17.7885C3.65385 17.5962 3.36538 17.4038 2.98077 17.0192C2.59615 16.6346 2.40385 16.3462 2.21154 15.8654C2.11538 15.4808 1.92308 15 1.82692 14.0385C1.73077 12.9808 1.73077 12.6923 1.73077 10C1.73077 7.30769 1.73077 7.01923 1.82692 5.96154C1.82692 5 2.01923 4.42308 2.21154 4.13462C2.40385 3.65385 2.59615 3.36538 2.98077 2.98077C3.36538 2.59615 3.65385 2.40385 4.13462 2.21154C4.42308 2.11538 5 1.92308 5.96154 1.82692C7.01923 1.82692 7.30769 1.82692 10 1.82692ZM10 0C7.30769 0 6.92308 0 5.86538 0.0961538C4.80769 0.0961538 4.13462 0.288462 3.46154 0.480769C2.78846 0.769231 2.21154 1.15385 1.73077 1.73077C1.15385 2.21154 0.769231 2.78846 0.480769 3.46154C0.288462 4.13462 0.0961538 4.80769 0.0961538 5.86538C0 6.92308 0 7.30769 0 10C0 12.6923 0 13.0769 0.0961538 14.1346C0.192308 15.1923 0.288462 15.9615 0.576923 16.5385C0.865385 17.2115 1.15385 17.7885 1.73077 18.2692C2.30769 18.8462 2.88462 19.1346 3.46154 19.4231C4.13462 19.7115 4.80769 19.8077 5.86538 19.9038C6.92308 20 7.30769 20 10 20C12.6923 20 13.0769 20 14.1346 19.9038C15.1923 19.8077 15.9615 19.7115 16.5385 19.4231C17.2115 19.1346 17.7885 18.8462 18.2692 18.2692C18.8462 17.6923 19.1346 17.1154 19.4231 16.5385C19.7115 15.8654 19.8077 15.1923 19.9038 14.1346C20 13.0769 20 12.6923 20 10C20 7.30769 20 6.92308 19.9038 5.86538C19.8077 4.80769 19.7115 4.03846 19.4231 3.46154C19.1346 2.78846 18.8462 2.21154 18.2692 1.73077C17.6923 1.15385 17.1154 0.865385 16.5385 0.576923C15.8654 0.288462 15.1923 0.192308 14.1346 0.0961538C13.0769 0 12.7885 0 10 0Z" fill="white"/>
<path d="M9.99992 4.90381C7.11531 4.90381 4.80762 7.2115 4.80762 10.0961C4.80762 12.9807 7.11531 15.2884 9.99992 15.2884C12.8845 15.2884 15.1922 12.9807 15.1922 10.0961C15.1922 7.2115 12.8845 4.90381 9.99992 4.90381ZM9.99992 13.3653C8.173 13.3653 6.63454 11.8269 6.63454 9.99996C6.73069 8.17304 8.173 6.73073 9.99992 6.73073C11.8268 6.73073 13.3653 8.26919 13.3653 10.0961C13.3653 11.923 11.923 13.3653 9.99992 13.3653Z" fill="white"/>
<path d="M16.6345 4.71167C16.6345 5.38475 16.0576 5.96167 15.3845 5.96167C14.7114 5.96167 14.1345 5.38475 14.1345 4.71167C14.1345 4.03859 14.7114 3.46167 15.3845 3.46167C16.0576 3.46167 16.6345 4.03859 16.6345 4.71167Z" fill="white"/>
</svg>
