<svg width="246" height="49" viewBox="0 0 246 49" fill="none" xmlns="http://www.w3.org/2000/svg">
<path fill-rule="evenodd" clip-rule="evenodd" d="M24 48.5C37.2548 48.5 48 37.7548 48 24.5C48 11.2452 37.2548 0.5 24 0.5C10.7452 0.5 0 11.2452 0 24.5C0 37.7548 10.7452 48.5 24 48.5ZM14.444 34.01C7.61 34.01 3.224 30.542 3.224 25C3.224 19.662 7.27 15.99 13.084 15.99C19.102 15.99 22.74 19.934 22.638 24.932C22.638 25.442 22.604 25.918 22.536 26.394H8.256C8.8 29.25 11.622 30.746 14.92 30.746C16.994 30.746 19.646 30.032 21.652 28.944L22.604 31.902C20.564 33.194 17.402 34.01 14.444 34.01ZM13.118 19.254C10.296 19.254 8.29 20.988 8.052 24.014H17.81C17.708 21.362 16.212 19.254 13.118 19.254ZM29.3573 33.5H24.0872L30.6833 24.762L24.6313 16.5H29.5952L34.0832 22.926L38.5713 16.5H43.5013L37.4832 24.762L44.0793 33.5H38.7752L34.0832 26.666L29.3573 33.5Z" fill="white"/>
<path d="M65.89 9.2V33H84.76V29.226H70.854V22.494H83.876V18.754H70.854V12.974H84.76V9.2H65.89ZM87.0794 33H92.3494L97.0754 26.166L101.767 33H107.071L100.475 24.262L106.493 16H101.563L97.0754 22.426L92.5874 16H87.6234L93.6754 24.262L87.0794 33ZM118.565 15.49C112.207 15.49 107.787 19.162 107.787 24.5C107.787 29.804 112.207 33.51 118.565 33.51C121.183 33.51 123.597 32.864 125.739 31.504L124.753 28.512C122.883 29.6 121.013 30.246 118.973 30.246C115.131 30.246 112.547 27.934 112.547 24.5C112.547 21.066 115.131 18.754 118.973 18.754C121.013 18.754 122.883 19.4 124.753 20.488L125.739 17.496C123.597 16.136 121.183 15.49 118.565 15.49ZM129.944 33H134.568V24.5C134.568 21.27 137.356 18.754 140.892 18.754C143.68 18.754 145.108 20.284 145.108 23.208V33H149.732V22.426C149.732 18.074 147.046 15.49 142.592 15.49C139.158 15.49 136.166 17.156 134.568 19.604V8.01H129.944V33ZM171.564 29.634L171.598 23.888C171.598 17.904 167.144 15.524 161.84 15.524C158.542 15.524 155.346 16.408 153.952 17.36L154.972 20.76C156.23 19.774 159.12 18.856 161.738 18.856C163.676 18.856 165.614 19.4 166.532 21.304C164.39 21.814 162.112 22.358 159.936 23.106C156.74 24.262 153.476 25.962 153.476 29.226C153.476 32.252 156.332 33.51 158.814 33.51C162.248 33.51 165.376 31.096 166.974 27.73L166.94 30.79C166.94 30.96 167.586 33.442 170.612 33.476C171.836 33.578 174.148 33.374 175.202 32.456V29.09C174.828 29.328 173.536 29.906 172.482 29.906C172.142 29.906 171.802 29.804 171.564 29.634ZM166.974 23.718C166.872 27.662 163.846 30.586 160.718 30.586C159.324 30.586 157.93 29.804 157.93 28.376C157.93 26.71 159.868 25.486 161.67 24.908C163.574 24.228 165.41 23.854 166.974 23.48C166.974 23.514 166.974 23.514 166.974 23.548V23.718ZM189.498 18.754C192.286 18.754 193.714 20.284 193.714 23.208V33H198.338V22.426C198.338 18.074 195.652 15.49 191.198 15.49C187.764 15.49 184.806 17.156 183.174 19.604V16H178.584V33H183.174V24.5C183.174 21.27 185.962 18.754 189.498 18.754ZM211.843 27.594C218.371 27.594 221.363 25.826 221.363 21.78C221.363 18.686 219.697 16.748 216.297 15.932C215.991 15.728 215.413 15.252 215.379 14.402C215.379 13.178 217.453 12.906 219.391 12.906C220.581 12.906 221.703 13.008 222.349 13.042L222.315 9.2C217.249 9.166 213.169 10.05 213.169 13.076C213.169 14.096 213.611 14.946 214.155 15.592C213.441 15.524 212.659 15.49 211.877 15.49C205.655 15.49 202.391 17.632 202.391 21.848C202.391 24.33 203.513 25.962 205.927 26.812C204.329 27.186 202.527 28.036 202.527 30.042C202.527 32.218 204.669 32.83 207.389 33.34C205.349 33.884 201.881 35.21 201.881 37.896C201.881 40.106 203.717 41.398 205.655 41.398H216.467C218.915 41.398 223.097 40.344 223.097 36.604C223.097 33.782 220.717 32.524 217.589 31.844C214.087 31.096 211.027 30.586 208.375 29.974C207.287 29.736 206.335 29.566 206.335 28.682C206.335 27.968 206.947 27.56 207.661 27.288C208.851 27.492 210.245 27.594 211.843 27.594ZM211.877 18.686C215.277 18.686 216.773 19.842 216.773 21.78C216.773 23.684 215.277 24.738 211.809 24.738C208.783 24.738 207.015 23.922 207.015 21.814C207.015 19.808 208.681 18.686 211.877 18.686ZM209.157 33.646C211.979 34.122 213.271 34.292 215.549 34.734C217.453 35.142 218.439 35.584 218.439 36.502C218.439 37.624 216.943 38.236 215.617 38.236H208.681C207.491 38.236 206.505 37.42 206.505 36.332C206.505 34.938 208.001 34.054 209.157 33.646ZM224.595 24.5C224.595 30.042 228.981 33.51 235.815 33.51C238.773 33.51 241.935 32.694 243.975 31.402L243.023 28.444C241.017 29.532 238.365 30.246 236.291 30.246C232.993 30.246 230.171 28.75 229.627 25.894H243.907C243.975 25.418 244.009 24.942 244.009 24.432C244.111 19.434 240.473 15.49 234.455 15.49C228.641 15.49 224.595 19.162 224.595 24.5ZM229.423 23.514C229.661 20.488 231.667 18.754 234.489 18.754C237.583 18.754 239.079 20.862 239.181 23.514H229.423Z" fill="white"/>
</svg>
