<svg width="20" height="20" viewBox="0 0 20 20" fill="none" xmlns="http://www.w3.org/2000/svg">
<path d="M10.4549 0.0168759C11.5847 0 12.7081 0.0100005 13.8301 0C13.8981 1.27569 14.3733 2.57514 15.3406 3.47706C16.3059 4.40148 17.6714 4.82463 19 4.96776V8.32357C17.7549 8.28419 16.5041 8.03418 15.3743 7.51665C14.8822 7.30164 14.4238 7.02475 13.9751 6.74161C13.9693 9.17674 13.9855 11.6087 13.9589 14.0339C13.8916 15.1989 13.4934 16.3584 12.7916 17.3184C11.6624 18.9166 9.70258 19.9586 7.68965 19.9911C6.45496 20.0592 5.22156 19.7342 4.16945 19.1354C2.42586 18.1428 1.19894 16.3259 1.02024 14.3758C0.99952 13.9589 0.992398 13.5426 1.00988 13.1357C1.16527 11.55 1.97782 10.033 3.23906 9.00111C4.66863 7.79917 6.67121 7.22664 8.54623 7.5654C8.56371 8.79984 8.51256 10.033 8.51256 11.2675C7.65598 11 6.65502 11.075 5.90656 11.5769C5.36011 11.9188 4.9451 12.4425 4.72885 13.0351C4.55015 13.4576 4.6013 13.927 4.61166 14.3758C4.8169 15.7433 6.17914 16.8928 7.63332 16.7684C8.59738 16.7584 9.52129 16.2184 10.0237 15.4277C10.1862 15.1508 10.3682 14.8677 10.3779 14.542C10.4627 13.0513 10.429 11.5669 10.4394 10.0762C10.4465 6.71661 10.429 3.36643 10.4556 0.0175009L10.4549 0.0168759Z" fill="white"/>
</svg>
