<svg width="20" height="20" viewBox="0 0 20 20" fill="none" xmlns="http://www.w3.org/2000/svg">
<path d="M0 15.8176C1.7734 16.9999 3.94089 17.6895 6.30542 17.6895C13.8916 17.6895 18.2266 11.2856 17.931 5.47276C18.7192 4.88163 19.4089 4.19197 20 3.40379C19.3103 3.69936 18.5222 3.99493 17.6355 4.09345C18.5222 3.60084 19.1133 2.81266 19.4089 1.82744C18.6207 2.32005 17.734 2.61562 16.8473 2.81266C16.0591 1.92596 14.9754 1.43335 13.7931 1.43335C11.2315 1.43335 9.26108 3.8964 9.85222 6.45798C6.40394 6.26094 3.44828 4.68458 1.37931 2.22153C0.295566 3.99493 0.788177 6.45798 2.6601 7.64025C1.97044 7.64025 1.37931 7.4432 0.788177 7.14763C0.788177 9.01956 2.06897 10.793 4.03941 11.187C3.44828 11.3841 2.85714 11.3841 2.16749 11.2856C2.6601 12.9604 4.23645 14.1427 6.00985 14.1427C4.33498 15.522 2.16749 16.1132 0 15.8176Z" fill="white"/>
</svg>
